<svg width="96" height="95" fill="none" xmlns="http://www.w3.org/2000/svg"><circle opacity=".3" cx="48" cy="47.5" r="46" stroke="#2274EE" stroke-width="3"/><path d="M29.103 7.212a1.5 1.5 0 00-1.274-2.716l1.274 2.716zM48 3a44.5 44.5 0 0129.695 11.357l2.002-2.234A47.5 47.5 0 0048 0v3zm29.695 11.357a44.5 44.5 0 0114.538 28.274l2.982-.328a47.5 47.5 0 00-15.518-30.18l-2.002 2.234zm14.538 28.274a44.5 44.5 0 01-8.04 30.759l2.44 1.745a47.5 47.5 0 008.582-32.833l-2.982.329zm-8.04 30.759A44.5 44.5 0 0157.68 90.934l.653 2.929a47.5 47.5 0 0028.3-18.728l-2.44-1.745zM57.68 90.934a44.5 44.5 0 01-31.454-4.625l-1.468 2.616a47.5 47.5 0 0033.575 4.938l-.653-2.929zM26.226 86.31a44.5 44.5 0 01-20.34-24.434l-2.84.969a47.5 47.5 0 0021.712 26.081l1.468-2.616zM5.886 61.875A44.5 44.5 0 017.04 30.103l-2.76-1.172a47.5 47.5 0 00-1.234 33.913l2.839-.97zM7.04 30.103A44.5 44.5 0 0129.103 7.212L27.83 4.496A47.5 47.5 0 004.28 28.93l2.761 1.172z" fill="#2274EE"/></svg>