<svg width="45" height="10" fill="none" xmlns="http://www.w3.org/2000/svg"><path d="M5.313 2.752h-3.08v1.826h2.992V6.03H2.233V9H.715V1.3h4.598v1.452zm2.46 1.694c.131-.352.347-.616.648-.792a2.025 2.025 0 011.023-.264v1.584a1.69 1.69 0 00-1.166.264c-.337.227-.506.605-.506 1.133V9H6.353V3.5h1.42v.946zm3.496 2.387c.19.69.708 1.034 1.55 1.034.544 0 .954-.183 1.233-.55l1.144.66c-.543.785-1.342 1.177-2.398 1.177-.91 0-1.64-.275-2.19-.825-.55-.55-.824-1.243-.824-2.079 0-.829.271-1.518.814-2.068.543-.557 1.24-.836 2.09-.836.807 0 1.47.279 1.99.836.529.557.793 1.247.793 2.068 0 .183-.018.378-.055.583h-4.147zm-.022-1.1h2.805c-.08-.374-.25-.653-.506-.836a1.41 1.41 0 00-.858-.275c-.381 0-.697.099-.946.297-.25.19-.414.462-.495.814zm6.37 1.1c.191.69.708 1.034 1.552 1.034.542 0 .953-.183 1.232-.55l1.143.66c-.542.785-1.341 1.177-2.398 1.177-.909 0-1.639-.275-2.189-.825-.55-.55-.825-1.243-.825-2.079 0-.829.272-1.518.814-2.068.543-.557 1.24-.836 2.09-.836.807 0 1.47.279 1.991.836.528.557.793 1.247.793 2.068 0 .183-.019.378-.055.583h-4.148zm-.021-1.1H20.4c-.081-.374-.25-.653-.506-.836a1.41 1.41 0 00-.858-.275c-.382 0-.697.099-.947.297-.249.19-.414.462-.494.814zm11.11-.869h-1.243v2.288c0 .19.048.33.143.418.095.088.235.14.418.154.183.007.41.004.682-.011V9c-.975.11-1.665.018-2.068-.275-.396-.293-.594-.818-.594-1.573V4.864h-.957V3.5h.957V2.389l1.42-.429V3.5h1.242v1.364zm2.506-.418c.132-.352.348-.616.649-.792a2.025 2.025 0 011.023-.264v1.584a1.69 1.69 0 00-1.166.264c-.338.227-.506.605-.506 1.133V9h-1.42V3.5h1.42v.946zm3.205-1.606a.862.862 0 01-.869-.869c0-.235.085-.44.253-.616a.844.844 0 01.616-.264.82.82 0 01.616.264.844.844 0 01.264.616.84.84 0 01-.264.616.838.838 0 01-.616.253zM33.714 9V3.5h1.419V9h-1.42zm6.897-5.5h1.42V9h-1.42v-.649c-.425.535-1.023.803-1.793.803-.733 0-1.364-.279-1.892-.836-.52-.565-.78-1.254-.78-2.068 0-.814.26-1.5.78-2.057.528-.565 1.159-.847 1.892-.847.77 0 1.368.268 1.793.803V3.5zm-2.618 3.872c.286.286.65.429 1.09.429.44 0 .802-.143 1.088-.429.294-.293.44-.667.44-1.122 0-.455-.146-.825-.44-1.111-.286-.293-.649-.44-1.089-.44-.44 0-.803.147-1.089.44-.286.286-.429.656-.429 1.111 0 .455.143.829.43 1.122zM43.317 9V.97h1.419V9h-1.419z" fill="#2274EE"/></svg>