<svg width="54" height="45" fill="none" xmlns="http://www.w3.org/2000/svg"><path d="M4.124 14.16a5.47 5.47 0 01-1.936-.336c-.597-.224-1.077-.544-1.44-.96L1.82 11.52c.8.725 1.648 1.088 2.544 1.088.448 0 .8-.096 1.056-.288a.897.897 0 00.384-.752.631.631 0 00-.352-.592c-.224-.128-.592-.267-1.104-.416a15.157 15.157 0 01-1.376-.512c-.352-.17-.613-.368-.784-.592-.17-.224-.256-.517-.256-.88 0-.597.166-1.13.496-1.6a3.48 3.48 0 011.36-1.104 4.368 4.368 0 011.92-.416c.608 0 1.152.096 1.632.288.48.181.907.47 1.28.864L7.484 7.904c-.352-.32-.688-.55-1.008-.688a2.288 2.288 0 00-1.008-.224c-.416 0-.762.09-1.04.272a.88.88 0 00-.416.784c0 .245.096.427.288.544.203.117.55.245 1.04.384.886.256 1.542.539 1.968.848.438.31.656.752.656 1.328 0 .576-.16 1.093-.48 1.552-.32.448-.768.805-1.344 1.072-.576.256-1.248.384-2.016.384zm5.401-1.488v-.288a1.76 1.76 0 01.064-.304l1.024-4.816h-1.04l.352-1.648h1.024l.576-2.72h2.144l-.576 2.72h1.68l-.352 1.648h-1.664l-.88 4.096-.032.144v.112c0 .203.06.347.176.432a.715.715 0 00.432.128c.203 0 .411-.037.624-.112a13.9 13.9 0 00.544-.192l.064 1.696c-.309.15-.682.283-1.12.4a4.996 4.996 0 01-1.296.176c-.5 0-.917-.112-1.248-.336-.33-.235-.496-.613-.496-1.136zm8.852 1.488c-.81 0-1.477-.16-2-.48a2.926 2.926 0 01-1.136-1.28 4.309 4.309 0 01-.368-1.792c0-.683.123-1.333.368-1.952a5.293 5.293 0 011.072-1.648 4.89 4.89 0 011.616-1.12 5.061 5.061 0 012.064-.416c.81 0 1.472.16 1.984.48.523.32.907.747 1.152 1.28.245.533.368 1.13.368 1.792 0 .683-.128 1.333-.384 1.952a5.065 5.065 0 01-2.688 2.784 5.12 5.12 0 01-2.048.4zm.32-1.824c.448 0 .864-.133 1.248-.4.395-.267.715-.63.96-1.088.245-.459.368-.981.368-1.568 0-.587-.139-1.061-.416-1.424-.277-.373-.672-.56-1.184-.56a2.19 2.19 0 00-1.248.4 2.947 2.947 0 00-.96 1.104c-.245.459-.368.981-.368 1.568 0 .587.138 1.061.416 1.424.277.363.672.544 1.184.544zm7.023-6.72h1.968l-.384 1.792c.405-.576.859-1.03 1.36-1.36.512-.341 1.013-.512 1.504-.512.181 0 .31.01.384.032l-.4 1.904c-.608 0-1.179.128-1.712.384-.534.245-.96.603-1.28 1.072L26.088 14h-2.144l1.776-8.384zm7.937 8.544c-.715 0-1.328-.15-1.84-.448a3.143 3.143 0 01-1.184-1.264c-.267-.533-.4-1.147-.4-1.84 0-.693.133-1.35.4-1.968a5.063 5.063 0 011.12-1.632c.48-.48 1.04-.853 1.68-1.12a5.174 5.174 0 012.08-.416c.906 0 1.632.203 2.176.608.544.395.816.97.816 1.728 0 1.803-1.611 2.704-4.832 2.704h-.624l-.672-.032a1.229 1.229 0 00-.016.208c0 .555.133 1.013.4 1.376.277.352.704.528 1.28.528.426 0 .826-.101 1.2-.304.384-.203.688-.485.912-.848l1.696.528a4.518 4.518 0 01-1.104 1.152c-.438.32-.923.576-1.456.768a5.039 5.039 0 01-1.632.272zm1.552-7.136c-.598 0-1.12.197-1.568.592a3.64 3.64 0 00-1.008 1.504l.528.032h.528c1.034 0 1.754-.107 2.16-.32.416-.213.624-.507.624-.88 0-.31-.118-.539-.352-.688-.235-.16-.54-.24-.912-.24zm5.277.672h-1.024l.352-1.632h1.024l.112-.512c.203-1.045.618-1.872 1.248-2.48.63-.608 1.35-.912 2.16-.912a3.9 3.9 0 011.888.496l-.752 1.616a1.856 1.856 0 00-1.04-.304c-.683 0-1.13.501-1.344 1.504l-.128.592h1.92l-.352 1.632h-1.92l-2.064 9.696h-2.144l2.064-9.696zm3.35 8.32a5.496 5.496 0 001.04-.16 1.71 1.71 0 00.703-.368c.203-.16.416-.39.64-.688l.464-.624-1.392-8.56h2.192l.72 6.528.544-.896c.437-.725.805-1.392 1.104-2 .31-.608.565-1.2.768-1.776.203-.587.379-1.205.528-1.856h2.08c-.15.523-.31 1.008-.48 1.456-.16.448-.363.917-.608 1.408-.235.49-.533 1.045-.896 1.664-.352.619-.79 1.355-1.312 2.208l-1.28 2.064c-.501.8-.981 1.435-1.44 1.904-.459.47-.939.805-1.44 1.008a4.451 4.451 0 01-1.68.336l-.256-1.648zM18.928 26.144c-.904 0-1.656-.3-2.256-.9-.6-.608-.9-1.356-.9-2.244 0-.888.3-1.632.9-2.232.6-.608 1.352-.912 2.256-.912.592 0 1.124.144 1.596.432.472.28.816.66 1.032 1.14l-.648.372c-.16-.36-.42-.644-.78-.852a2.248 2.248 0 00-1.2-.324c-.664 0-1.224.232-1.68.696-.456.456-.684 1.016-.684 1.68 0 .664.228 1.228.684 1.692.456.456 1.016.684 1.68.684.448 0 .848-.104 1.2-.312a2.32 2.32 0 00.828-.864l.66.384c-.248.48-.612.86-1.092 1.14a3.11 3.11 0 01-1.596.42zM22.754 26v-8.76h.792V26h-.792zm6.697-6h.792v6h-.792v-.936c-.448.72-1.12 1.08-2.016 1.08-.728 0-1.304-.22-1.728-.66-.416-.448-.624-1.048-.624-1.8V20h.792v3.684c0 .536.14.952.42 1.248.288.296.692.444 1.212.444.576 0 1.044-.18 1.404-.54.36-.368.54-.932.54-1.692V20zm5.683-.144c.856 0 1.584.304 2.184.912.608.608.912 1.352.912 2.232 0 .88-.304 1.624-.912 2.232-.6.608-1.328.912-2.184.912-1.064 0-1.872-.44-2.424-1.32V26h-.792v-8.4h.792v3.576c.552-.88 1.36-1.32 2.424-1.32zm-1.74 4.836c.456.456 1.016.684 1.68.684.664 0 1.224-.228 1.68-.684A2.324 2.324 0 0037.438 23c0-.664-.228-1.224-.684-1.68a2.264 2.264 0 00-1.68-.696c-.664 0-1.224.232-1.68.696-.456.456-.684 1.016-.684 1.68 0 .664.228 1.228.684 1.692z" fill="#35394A"/><path d="M10.313 36.752h-3.08v1.826h2.992v1.452H7.233V43H5.715v-7.7h4.598v1.452zm2.46 1.694c.131-.352.347-.616.648-.792a2.025 2.025 0 011.023-.264v1.584a1.69 1.69 0 00-1.166.264c-.337.227-.506.605-.506 1.133V43h-1.419v-5.5h1.42v.946zm3.496 2.387c.19.69.708 1.034 1.55 1.034.544 0 .954-.183 1.233-.55l1.144.66c-.543.785-1.342 1.177-2.398 1.177-.91 0-1.64-.275-2.19-.825-.55-.55-.824-1.243-.824-2.079 0-.829.271-1.518.814-2.068.543-.557 1.24-.836 2.09-.836.807 0 1.47.279 1.99.836.529.557.793 1.247.793 2.068 0 .183-.018.378-.055.583h-4.147zm-.022-1.1h2.805c-.08-.374-.25-.653-.506-.836a1.41 1.41 0 00-.858-.275c-.381 0-.697.099-.946.297-.25.19-.414.462-.495.814zm6.37 1.1c.191.69.708 1.034 1.552 1.034.542 0 .953-.183 1.232-.55l1.143.66c-.542.785-1.341 1.177-2.398 1.177-.909 0-1.639-.275-2.189-.825-.55-.55-.825-1.243-.825-2.079 0-.829.272-1.518.814-2.068.543-.557 1.24-.836 2.09-.836.807 0 1.47.279 1.991.836.528.557.793 1.247.793 2.068 0 .183-.019.378-.055.583h-4.148zm-.021-1.1H25.4c-.081-.374-.25-.653-.506-.836a1.41 1.41 0 00-.858-.275c-.382 0-.697.099-.947.297-.249.19-.414.462-.494.814zm11.11-.869h-1.243v2.288c0 .19.048.33.143.418.096.088.235.14.418.154.184.007.41.004.682-.011V43c-.975.11-1.665.018-2.068-.275-.396-.293-.594-.818-.594-1.573v-2.288h-.957V37.5h.957v-1.111l1.42-.429v1.54h1.242v1.364zm2.506-.418c.132-.352.348-.616.649-.792a2.025 2.025 0 011.023-.264v1.584a1.69 1.69 0 00-1.166.264c-.338.227-.506.605-.506 1.133V43h-1.42v-5.5h1.42v.946zm3.205-1.606a.862.862 0 01-.869-.869c0-.235.085-.44.253-.616a.844.844 0 01.616-.264.82.82 0 01.616.264.844.844 0 01.264.616.84.84 0 01-.264.616.838.838 0 01-.616.253zM38.714 43v-5.5h1.419V43h-1.42zm6.897-5.5h1.42V43h-1.42v-.649c-.425.535-1.023.803-1.793.803-.733 0-1.364-.279-1.892-.836-.52-.565-.78-1.254-.78-2.068 0-.814.26-1.5.78-2.057.528-.565 1.159-.847 1.892-.847.77 0 1.368.268 1.793.803V37.5zm-2.618 3.872c.286.286.65.429 1.09.429.44 0 .802-.143 1.088-.429.294-.293.44-.667.44-1.122 0-.455-.146-.825-.44-1.111-.286-.293-.649-.44-1.089-.44-.44 0-.803.147-1.089.44-.286.286-.429.656-.429 1.111 0 .455.143.829.43 1.122zM48.317 43v-8.03h1.419V43h-1.419z" fill="#2274EE"/></svg>